<svg xmlns="http://www.w3.org/2000/svg" viewBox="0 0 50.36 59.14"><defs><style>.cls-1{fill:#e31837;}.cls-2{fill:#f47725;}</style></defs><title>wing-left</title><g id="레이어_2" data-name="레이어 2"><g id="Layer_1" data-name="Layer 1"><path class="cls-1" d="M32.4,14.26C28.07,15.08,21.64,19,21.66,26c0,6.32,5.18,10.15,5.2,18.42a14.64,14.64,0,0,1-7.12,12.75c1.5-.13,3.14-.22,5-.22a41.43,41.43,0,0,1,6.22.37L50.36,33.43A80.9,80.9,0,0,0,32.4,14.26Z"/><path class="cls-2" d="M7.67,59.14c-1,0-1.47-.65-1.61-1.78S1.08,11.74.35,5C.25,4,0,2.22,0,1.58A1.44,1.44,0,0,1,1.47,0c2.3,0,14.86,2.93,28.18,12.27-3.84,1.08-10.78,5.08-10.75,13.34,0,7.32,5.26,11.35,5.29,18.69C24.23,56.24,10.51,59.13,7.67,59.14Z"/></g></g></svg>
