<svg xmlns="http://www.w3.org/2000/svg" viewBox="0 0 64.49 50.53"><defs><style>.cls-1{fill:#e31837;}.cls-2{fill:#f47725;}</style></defs><title>wing-right</title><g id="레이어_2" data-name="레이어 2"><g id="Layer_1" data-name="Layer 1"><path class="cls-1" d="M8.75,45.26c2.45-3.81,2.76-9.88,3-16.07.23-5.77,1.43-10.11,9.15-10.14,1.71,0,3.34.23,6.29.22a45.52,45.52,0,0,0,23.28-6.5A80.73,80.73,0,0,0,10.37,0C9.26,3.12.65,27.06,0,29a32,32,0,0,1,3.49,5.1A56.57,56.57,0,0,1,8.75,45.26Z"/><path class="cls-2" d="M9.86,48.43a8.6,8.6,0,0,0,.6,1.35,1.33,1.33,0,0,0,1.2.75,2.92,2.92,0,0,0,1.11-.3c1-.47,41.63-19.37,47.75-22.2.89-.43,2.57-1.18,3.12-1.5a1.49,1.49,0,0,0,.84-1.29,1.54,1.54,0,0,0-.24-.8c-.76-1.24-4.69-5.41-11.26-10-5.21,2.87-13.36,7.31-25.47,7.36-3,0-3.64-.2-5.67-.19-5.91,0-7.39,2.55-7.61,7.73,0,1-.05,2.3-.11,3.74C14,37.77,13.4,44.16,9.86,48.43Z"/></g></g></svg>